;Layer: Drill PTH
;EasyEDA v6.1.52, Thu, 01 Aug 2019 03:37:45 GMT
;db437ead1b4e433ca09bb31b05fed2d0,8891319bfb9c4d3ab71b0b9d4a5ec0bf,10
;Gerber Generator version 0.2
M48
METRIC,LZ,000.000
;Holesize 1 = 0.801 METRIC
T01C0.801
;Holesize 2 = 0.915 METRIC
T02C0.915
;Holesize 3 = 1.016 METRIC
T03C1.016
%
G05
G90
T01
X+085600Y+010414G85X+085595Y+010414
X+085600Y+012954G85X+085595Y+012954
X+085600Y+015494G85X+085595Y+015494
X+085600Y+018034G85X+085595Y+018034
X+085600Y+020574G85X+085595Y+020574
X+085600Y+023114G85X+085595Y+023114
X+085600Y+025654G85X+085595Y+025654
X+085600Y+028194G85X+085595Y+028194
X+085600Y+030734G85X+085595Y+030734
X+085600Y+033274G85X+085595Y+033274
X+085600Y+035814G85X+085595Y+035814
X+085600Y+038354G85X+085595Y+038354
X+085600Y+040894G85X+085595Y+040894
X+085600Y+043434G85X+085595Y+043434
X+085600Y+045974G85X+085595Y+045974
X+062740Y+010414G85X+062735Y+010414
X+062740Y+012954G85X+062735Y+012954
X+062740Y+015494G85X+062735Y+015494
X+062740Y+018034G85X+062735Y+018034
X+062740Y+020574G85X+062735Y+020574
X+062740Y+023114G85X+062735Y+023114
X+062740Y+025654G85X+062735Y+025654
X+062740Y+028194G85X+062735Y+028194
X+062740Y+030734G85X+062735Y+030734
X+062740Y+033274G85X+062735Y+033274
X+062740Y+035814G85X+062735Y+035814
X+062740Y+038354G85X+062735Y+038354
X+062740Y+040894G85X+062735Y+040894
X+062740Y+043434G85X+062735Y+043434
X+062740Y+045974G85X+062735Y+045974
T02
X+055499Y+037719
X+055499Y+035179
X+055499Y+032639
X+055499Y+030099
X+055499Y+027559
X+055499Y+025019
X+055499Y+022479
X+055499Y+019939
T03
X+091567Y+043053
X+091567Y+045593
M30
