G04 Layer: BottomLayer*
G04 EasyEDA v6.1.52, Thu, 01 Aug 2019 03:37:45 GMT*
G04 db437ead1b4e433ca09bb31b05fed2d0,8891319bfb9c4d3ab71b0b9d4a5ec0bf,10*
G04 Gerber Generator version 0.2*
G04 Scale: 100 percent, Rotated: No, Reflected: No *
G04 Dimensions in millimeters *
G04 leading zeros omitted , absolute positions ,3 integer and 3 decimal *
%FSLAX33Y33*%
%MOMM*%
G90*
G71D02*

%ADD11C,0.159995*%
%ADD12C,1.930400*%
%ADD13C,1.524000*%

%LPD*%
G54D11*
G01X62738Y15494D02*
G01X57523Y15494D01*
G01X53761Y19255D01*
G01X53761Y30901D01*
G01X55499Y32639D01*
G01X62738Y18034D02*
G01X55440Y18034D01*
G01X54084Y19390D01*
G01X54084Y27602D01*
G01X55310Y28829D01*
G01X55674Y28829D01*
G01X56558Y29712D01*
G01X56558Y34119D01*
G01X55499Y35179D01*
G01X55499Y37719D02*
G01X56880Y36337D01*
G01X56880Y27520D01*
G01X55445Y26085D01*
G01X55095Y26085D01*
G01X54406Y25397D01*
G01X54406Y19522D01*
G01X54996Y18933D01*
G01X61097Y18933D01*
G01X62738Y20574D01*
G01X55499Y19939D02*
G01X61025Y25463D01*
G01X61025Y41721D01*
G01X62738Y43434D01*
G01X55499Y22479D02*
G01X55499Y25019D01*
G01X55499Y25019D02*
G01X60185Y29705D01*
G01X60185Y43421D01*
G01X62738Y45974D01*
G54D12*
G01X85598Y10414D03*
G01X85598Y12954D03*
G01X85598Y15494D03*
G01X85598Y18034D03*
G01X85598Y20574D03*
G01X85598Y23114D03*
G01X85598Y25654D03*
G01X85598Y28194D03*
G01X85598Y30734D03*
G01X85598Y33274D03*
G01X85598Y35814D03*
G01X85598Y38354D03*
G01X85598Y40894D03*
G01X85598Y43434D03*
G01X85598Y45974D03*
G01X62738Y10414D03*
G01X62738Y12954D03*
G01X62738Y15494D03*
G01X62738Y18034D03*
G01X62738Y20574D03*
G01X62738Y23114D03*
G01X62738Y25654D03*
G01X62738Y28194D03*
G01X62738Y30734D03*
G01X62738Y33274D03*
G01X62738Y35814D03*
G01X62738Y38354D03*
G01X62738Y40894D03*
G01X62738Y43434D03*
G01X62738Y45974D03*
G54D13*
G01X55499Y37719D03*
G01X55499Y35179D03*
G01X55499Y32639D03*
G01X55499Y30099D03*
G01X55499Y27559D03*
G01X55499Y25019D03*
G01X55499Y22479D03*
G01X55499Y19939D03*
G36*
G01X90859Y42345D02*
G01X90859Y43760D01*
G01X92274Y43760D01*
G01X92274Y42345D01*
G01X90859Y42345D01*
G37*
G36*
G01X90859Y44885D02*
G01X90859Y46300D01*
G01X92274Y46300D01*
G01X92274Y44885D01*
G01X90859Y44885D01*
G37*
M00*
M02*
