G04 Layer: TopSilkLayer*
G04 EasyEDA v6.1.52, Thu, 01 Aug 2019 03:37:45 GMT*
G04 db437ead1b4e433ca09bb31b05fed2d0,8891319bfb9c4d3ab71b0b9d4a5ec0bf,10*
G04 Gerber Generator version 0.2*
G04 Scale: 100 percent, Rotated: No, Reflected: No *
G04 Dimensions in millimeters *
G04 leading zeros omitted , absolute positions ,3 integer and 3 decimal *
%FSLAX33Y33*%
%MOMM*%
G90*
G71D02*

%ADD10C,0.254000*%
%ADD15C,0.203200*%
%ADD16C,0.152400*%
%ADD17C,0.065024*%

%LPD*%
G54D15*
G01X61468Y52324D02*
G01X70358Y52324D01*
G01X77978Y52324D01*
G01X86868Y52324D01*
G01X86868Y4064D01*
G01X81788Y4064D01*
G01X66548Y4064D01*
G01X61468Y4064D01*
G01X61468Y52324D01*
G01X81788Y4064D02*
G01X81788Y26924D01*
G01X66548Y26924D01*
G01X66548Y4064D01*
G01X79248Y9144D02*
G01X79248Y5334D01*
G01X77978Y5334D01*
G01X77978Y7874D01*
G01X76708Y7874D01*
G01X76708Y5334D01*
G01X75438Y5334D01*
G01X75438Y7874D01*
G01X74168Y7874D01*
G01X74168Y5334D01*
G01X72898Y5334D01*
G01X72898Y7874D01*
G01X71628Y7874D01*
G01X71628Y5334D01*
G01X69088Y5334D01*
G01X69088Y48514D02*
G01X69088Y51054D01*
G01X66548Y51054D01*
G01X66548Y48514D01*
G01X69088Y48514D01*
G01X81788Y48514D02*
G01X79248Y48514D01*
G01X79248Y51054D01*
G01X81788Y51054D01*
G01X81788Y48514D01*
G01X77978Y52324D02*
G01X77978Y48514D01*
G01X70358Y48514D01*
G01X70358Y52324D01*
G54D10*
G01X56769Y36449D02*
G01X54229Y36449D01*
G01X56769Y38989D02*
G01X54229Y38989D01*
G01X54229Y18669D01*
G01X56769Y18669D01*
G01X56769Y38989D01*
G01X88315Y41554D02*
G01X88315Y47040D01*
G01X88315Y47040D02*
G01X89077Y47040D01*
G01X89077Y47040D02*
G01X94818Y47040D01*
G01X94818Y47040D02*
G01X94818Y41554D01*
G01X94818Y41554D02*
G01X89077Y41554D01*
G01X89077Y41554D02*
G01X88315Y41554D01*
G01X89077Y41554D02*
G01X89077Y47040D01*
G54D16*
G01X74168Y3964D02*
G01X74168Y3187D01*
G01X74218Y3030D01*
G01X74322Y2926D01*
G01X74480Y2875D01*
G01X74584Y2875D01*
G01X74739Y2926D01*
G01X74843Y3030D01*
G01X74894Y3187D01*
G01X74894Y3964D01*
G01X75237Y3759D02*
G01X75341Y3809D01*
G01X75498Y3964D01*
G01X75498Y2875D01*
G54D17*
G01X84328Y45123D02*
G01X84033Y45900D01*
G01X83736Y45123D02*
G01X84033Y45900D01*
G01X83492Y45123D02*
G01X83492Y45900D01*
G01X83248Y45123D02*
G01X83248Y45900D01*
G01X83248Y45123D02*
G01X82732Y45900D01*
G01X82732Y45123D02*
G01X82732Y45900D01*
G01X83774Y30068D02*
G01X83809Y29994D01*
G01X83883Y29921D01*
G01X83959Y29883D01*
G01X84107Y29883D01*
G01X84180Y29921D01*
G01X84254Y29994D01*
G01X84289Y30068D01*
G01X84328Y30180D01*
G01X84328Y30365D01*
G01X84289Y30474D01*
G01X84254Y30548D01*
G01X84180Y30622D01*
G01X84107Y30660D01*
G01X83959Y30660D01*
G01X83883Y30622D01*
G01X83809Y30548D01*
G01X83774Y30474D01*
G01X83530Y29883D02*
G01X83530Y30660D01*
G01X83530Y30660D02*
G01X83085Y30660D01*
G01X82842Y29883D02*
G01X82842Y30660D01*
G01X82326Y29883D02*
G01X82842Y30401D01*
G01X82659Y30215D02*
G01X82326Y30660D01*
G01X83774Y32608D02*
G01X83809Y32534D01*
G01X83883Y32461D01*
G01X83959Y32423D01*
G01X84107Y32423D01*
G01X84180Y32461D01*
G01X84254Y32534D01*
G01X84289Y32608D01*
G01X84328Y32720D01*
G01X84328Y32905D01*
G01X84289Y33014D01*
G01X84254Y33088D01*
G01X84180Y33162D01*
G01X84107Y33200D01*
G01X83959Y33200D01*
G01X83883Y33162D01*
G01X83809Y33088D01*
G01X83774Y33014D01*
G01X83774Y32905D01*
G01X83959Y32905D02*
G01X83774Y32905D01*
G01X83530Y32423D02*
G01X83530Y33200D01*
G01X83530Y32423D02*
G01X83012Y33200D01*
G01X83012Y32423D02*
G01X83012Y33200D01*
G01X82768Y32423D02*
G01X82768Y33200D01*
G01X82768Y32423D02*
G01X82509Y32423D01*
G01X82400Y32461D01*
G01X82326Y32534D01*
G01X82288Y32608D01*
G01X82252Y32720D01*
G01X82252Y32905D01*
G01X82288Y33014D01*
G01X82326Y33088D01*
G01X82400Y33162D01*
G01X82509Y33200D01*
G01X82768Y33200D01*
G01X84254Y34963D02*
G01X83847Y34963D01*
G01X84068Y35260D01*
G01X83959Y35260D01*
G01X83883Y35295D01*
G01X83847Y35333D01*
G01X83809Y35445D01*
G01X83809Y35519D01*
G01X83847Y35628D01*
G01X83921Y35702D01*
G01X84033Y35740D01*
G01X84142Y35740D01*
G01X84254Y35702D01*
G01X84289Y35666D01*
G01X84328Y35593D01*
G01X83566Y34963D02*
G01X83271Y35740D01*
G01X82976Y34963D02*
G01X83271Y35740D01*
G01X82659Y34963D02*
G01X82252Y34963D01*
G01X82473Y35260D01*
G01X82362Y35260D01*
G01X82288Y35295D01*
G01X82252Y35333D01*
G01X82214Y35445D01*
G01X82214Y35519D01*
G01X82252Y35628D01*
G01X82326Y35702D01*
G01X82435Y35740D01*
G01X82547Y35740D01*
G01X82659Y35702D01*
G01X82694Y35666D01*
G01X82732Y35593D01*
G01X84328Y37503D02*
G01X84328Y38280D01*
G01X84328Y37503D02*
G01X83847Y37503D01*
G01X84328Y37873D02*
G01X84033Y37873D01*
G01X84328Y38280D02*
G01X83847Y38280D01*
G01X83604Y37503D02*
G01X83604Y38280D01*
G01X83604Y37503D02*
G01X83085Y38280D01*
G01X83085Y37503D02*
G01X83085Y38280D01*
G01X83774Y42768D02*
G01X83809Y42694D01*
G01X83883Y42621D01*
G01X83959Y42583D01*
G01X84107Y42583D01*
G01X84180Y42621D01*
G01X84254Y42694D01*
G01X84289Y42768D01*
G01X84328Y42880D01*
G01X84328Y43065D01*
G01X84289Y43174D01*
G01X84254Y43248D01*
G01X84180Y43322D01*
G01X84107Y43360D01*
G01X83959Y43360D01*
G01X83883Y43322D01*
G01X83809Y43248D01*
G01X83774Y43174D01*
G01X83774Y43065D01*
G01X83959Y43065D02*
G01X83774Y43065D01*
G01X83530Y42583D02*
G01X83530Y43360D01*
G01X83530Y42583D02*
G01X83012Y43360D01*
G01X83012Y42583D02*
G01X83012Y43360D01*
G01X82768Y42583D02*
G01X82768Y43360D01*
G01X82768Y42583D02*
G01X82509Y42583D01*
G01X82400Y42621D01*
G01X82326Y42694D01*
G01X82288Y42768D01*
G01X82252Y42880D01*
G01X82252Y43065D01*
G01X82288Y43174D01*
G01X82326Y43248D01*
G01X82400Y43322D01*
G01X82509Y43360D01*
G01X82768Y43360D01*
G01X84328Y40043D02*
G01X84328Y40820D01*
G01X84328Y40043D02*
G01X83995Y40043D01*
G01X83883Y40081D01*
G01X83847Y40119D01*
G01X83809Y40192D01*
G01X83809Y40266D01*
G01X83847Y40340D01*
G01X83883Y40375D01*
G01X83995Y40413D01*
G01X84328Y40413D01*
G01X84068Y40413D02*
G01X83809Y40820D01*
G01X83050Y40154D02*
G01X83124Y40081D01*
G01X83233Y40043D01*
G01X83383Y40043D01*
G01X83492Y40081D01*
G01X83566Y40154D01*
G01X83566Y40228D01*
G01X83530Y40302D01*
G01X83492Y40340D01*
G01X83418Y40375D01*
G01X83197Y40449D01*
G01X83124Y40487D01*
G01X83085Y40525D01*
G01X83050Y40599D01*
G01X83050Y40708D01*
G01X83124Y40782D01*
G01X83233Y40820D01*
G01X83383Y40820D01*
G01X83492Y40782D01*
G01X83566Y40708D01*
G01X82547Y40043D02*
G01X82547Y40820D01*
G01X82806Y40043D02*
G01X82288Y40043D01*
G01X84033Y9563D02*
G01X84328Y10340D01*
G01X84033Y9563D02*
G01X83736Y10340D01*
G01X84216Y10081D02*
G01X83847Y10081D01*
G01X83492Y9563D02*
G01X83492Y10340D01*
G01X83492Y9563D02*
G01X83233Y9563D01*
G01X83124Y9601D01*
G01X83050Y9674D01*
G01X83012Y9748D01*
G01X82976Y9860D01*
G01X82976Y10045D01*
G01X83012Y10154D01*
G01X83050Y10228D01*
G01X83124Y10302D01*
G01X83233Y10340D01*
G01X83492Y10340D01*
G01X82509Y9563D02*
G01X82621Y9601D01*
G01X82694Y9712D01*
G01X82732Y9895D01*
G01X82732Y10007D01*
G01X82694Y10193D01*
G01X82621Y10302D01*
G01X82509Y10340D01*
G01X82435Y10340D01*
G01X82326Y10302D01*
G01X82252Y10193D01*
G01X82214Y10007D01*
G01X82214Y9895D01*
G01X82252Y9712D01*
G01X82326Y9601D01*
G01X82435Y9563D01*
G01X82509Y9563D01*
G01X84328Y12103D02*
G01X84328Y12880D01*
G01X84328Y12103D02*
G01X83995Y12103D01*
G01X83883Y12141D01*
G01X83847Y12179D01*
G01X83809Y12252D01*
G01X83809Y12326D01*
G01X83847Y12400D01*
G01X83883Y12435D01*
G01X83995Y12473D01*
G01X84328Y12473D01*
G01X84068Y12473D02*
G01X83809Y12880D01*
G01X83050Y12214D02*
G01X83124Y12141D01*
G01X83233Y12103D01*
G01X83383Y12103D01*
G01X83492Y12141D01*
G01X83566Y12214D01*
G01X83566Y12288D01*
G01X83530Y12362D01*
G01X83492Y12400D01*
G01X83418Y12435D01*
G01X83197Y12509D01*
G01X83124Y12547D01*
G01X83085Y12585D01*
G01X83050Y12659D01*
G01X83050Y12768D01*
G01X83124Y12842D01*
G01X83233Y12880D01*
G01X83383Y12880D01*
G01X83492Y12842D01*
G01X83566Y12768D01*
G01X82806Y12103D02*
G01X82509Y12880D01*
G01X82214Y12103D02*
G01X82509Y12880D01*
G01X84328Y14643D02*
G01X84328Y15420D01*
G01X84328Y14643D02*
G01X83995Y14643D01*
G01X83883Y14681D01*
G01X83847Y14719D01*
G01X83809Y14792D01*
G01X83809Y14866D01*
G01X83847Y14940D01*
G01X83883Y14975D01*
G01X83995Y15013D01*
G01X84328Y15013D01*
G01X84068Y15013D02*
G01X83809Y15420D01*
G01X83050Y14754D02*
G01X83124Y14681D01*
G01X83233Y14643D01*
G01X83383Y14643D01*
G01X83492Y14681D01*
G01X83566Y14754D01*
G01X83566Y14828D01*
G01X83530Y14902D01*
G01X83492Y14940D01*
G01X83418Y14975D01*
G01X83197Y15049D01*
G01X83124Y15087D01*
G01X83085Y15125D01*
G01X83050Y15199D01*
G01X83050Y15308D01*
G01X83124Y15382D01*
G01X83233Y15420D01*
G01X83383Y15420D01*
G01X83492Y15382D01*
G01X83566Y15308D01*
G01X82806Y14643D02*
G01X82509Y15420D01*
G01X82214Y14643D02*
G01X82509Y15420D01*
G01X83809Y17294D02*
G01X83883Y17221D01*
G01X83995Y17183D01*
G01X84142Y17183D01*
G01X84254Y17221D01*
G01X84328Y17294D01*
G01X84328Y17368D01*
G01X84289Y17442D01*
G01X84254Y17480D01*
G01X84180Y17515D01*
G01X83959Y17589D01*
G01X83883Y17627D01*
G01X83847Y17665D01*
G01X83809Y17739D01*
G01X83809Y17848D01*
G01X83883Y17922D01*
G01X83995Y17960D01*
G01X84142Y17960D01*
G01X84254Y17922D01*
G01X84328Y17848D01*
G01X83566Y17183D02*
G01X83566Y17960D01*
G01X83566Y17183D02*
G01X83309Y17183D01*
G01X83197Y17221D01*
G01X83124Y17294D01*
G01X83085Y17368D01*
G01X83050Y17480D01*
G01X83050Y17665D01*
G01X83085Y17774D01*
G01X83124Y17848D01*
G01X83197Y17922D01*
G01X83309Y17960D01*
G01X83566Y17960D01*
G01X82732Y17183D02*
G01X82326Y17183D01*
G01X82547Y17480D01*
G01X82435Y17480D01*
G01X82362Y17515D01*
G01X82326Y17553D01*
G01X82288Y17665D01*
G01X82288Y17739D01*
G01X82326Y17848D01*
G01X82400Y17922D01*
G01X82509Y17960D01*
G01X82621Y17960D01*
G01X82732Y17922D01*
G01X82768Y17886D01*
G01X82806Y17813D01*
G01X83809Y19834D02*
G01X83883Y19761D01*
G01X83995Y19723D01*
G01X84142Y19723D01*
G01X84254Y19761D01*
G01X84328Y19834D01*
G01X84328Y19908D01*
G01X84289Y19982D01*
G01X84254Y20020D01*
G01X84180Y20055D01*
G01X83959Y20129D01*
G01X83883Y20167D01*
G01X83847Y20205D01*
G01X83809Y20279D01*
G01X83809Y20388D01*
G01X83883Y20462D01*
G01X83995Y20500D01*
G01X84142Y20500D01*
G01X84254Y20462D01*
G01X84328Y20388D01*
G01X83566Y19723D02*
G01X83566Y20500D01*
G01X83566Y19723D02*
G01X83309Y19723D01*
G01X83197Y19761D01*
G01X83124Y19834D01*
G01X83085Y19908D01*
G01X83050Y20020D01*
G01X83050Y20205D01*
G01X83085Y20314D01*
G01X83124Y20388D01*
G01X83197Y20462D01*
G01X83309Y20500D01*
G01X83566Y20500D01*
G01X82768Y19908D02*
G01X82768Y19872D01*
G01X82732Y19799D01*
G01X82694Y19761D01*
G01X82621Y19723D01*
G01X82473Y19723D01*
G01X82400Y19761D01*
G01X82362Y19799D01*
G01X82326Y19872D01*
G01X82326Y19946D01*
G01X82362Y20020D01*
G01X82435Y20129D01*
G01X82806Y20500D01*
G01X82288Y20500D01*
G01X83809Y22374D02*
G01X83883Y22301D01*
G01X83995Y22263D01*
G01X84142Y22263D01*
G01X84254Y22301D01*
G01X84328Y22374D01*
G01X84328Y22448D01*
G01X84289Y22522D01*
G01X84254Y22560D01*
G01X84180Y22595D01*
G01X83959Y22669D01*
G01X83883Y22707D01*
G01X83847Y22745D01*
G01X83809Y22819D01*
G01X83809Y22928D01*
G01X83883Y23002D01*
G01X83995Y23040D01*
G01X84142Y23040D01*
G01X84254Y23002D01*
G01X84328Y22928D01*
G01X83566Y22263D02*
G01X83566Y23040D01*
G01X83566Y22263D02*
G01X83309Y22263D01*
G01X83197Y22301D01*
G01X83124Y22374D01*
G01X83085Y22448D01*
G01X83050Y22560D01*
G01X83050Y22745D01*
G01X83085Y22854D01*
G01X83124Y22928D01*
G01X83197Y23002D01*
G01X83309Y23040D01*
G01X83566Y23040D01*
G01X82806Y22412D02*
G01X82732Y22374D01*
G01X82621Y22263D01*
G01X82621Y23040D01*
G01X83774Y24988D02*
G01X83809Y24914D01*
G01X83883Y24841D01*
G01X83959Y24803D01*
G01X84107Y24803D01*
G01X84180Y24841D01*
G01X84254Y24914D01*
G01X84289Y24988D01*
G01X84328Y25100D01*
G01X84328Y25285D01*
G01X84289Y25394D01*
G01X84254Y25468D01*
G01X84180Y25542D01*
G01X84107Y25580D01*
G01X83959Y25580D01*
G01X83883Y25542D01*
G01X83809Y25468D01*
G01X83774Y25394D01*
G01X83530Y24803D02*
G01X83530Y25580D01*
G01X83530Y24803D02*
G01X83233Y25580D01*
G01X82938Y24803D02*
G01X83233Y25580D01*
G01X82938Y24803D02*
G01X82938Y25580D01*
G01X82694Y24803D02*
G01X82694Y25580D01*
G01X82694Y24803D02*
G01X82435Y24803D01*
G01X82326Y24841D01*
G01X82252Y24914D01*
G01X82214Y24988D01*
G01X82176Y25100D01*
G01X82176Y25285D01*
G01X82214Y25394D01*
G01X82252Y25468D01*
G01X82326Y25542D01*
G01X82435Y25580D01*
G01X82694Y25580D01*
G01X83809Y27454D02*
G01X83883Y27381D01*
G01X83995Y27343D01*
G01X84142Y27343D01*
G01X84254Y27381D01*
G01X84328Y27454D01*
G01X84328Y27528D01*
G01X84289Y27602D01*
G01X84254Y27640D01*
G01X84180Y27675D01*
G01X83959Y27749D01*
G01X83883Y27787D01*
G01X83847Y27825D01*
G01X83809Y27899D01*
G01X83809Y28008D01*
G01X83883Y28082D01*
G01X83995Y28120D01*
G01X84142Y28120D01*
G01X84254Y28082D01*
G01X84328Y28008D01*
G01X83566Y27343D02*
G01X83566Y28120D01*
G01X83566Y27343D02*
G01X83309Y27343D01*
G01X83197Y27381D01*
G01X83124Y27454D01*
G01X83085Y27528D01*
G01X83050Y27640D01*
G01X83050Y27825D01*
G01X83085Y27934D01*
G01X83124Y28008D01*
G01X83197Y28082D01*
G01X83309Y28120D01*
G01X83566Y28120D01*
G01X82583Y27343D02*
G01X82694Y27381D01*
G01X82768Y27492D01*
G01X82806Y27675D01*
G01X82806Y27787D01*
G01X82768Y27973D01*
G01X82694Y28082D01*
G01X82583Y28120D01*
G01X82509Y28120D01*
G01X82400Y28082D01*
G01X82326Y27973D01*
G01X82288Y27787D01*
G01X82288Y27675D01*
G01X82326Y27492D01*
G01X82400Y27381D01*
G01X82509Y27343D01*
G01X82583Y27343D01*
G01X66128Y45123D02*
G01X65722Y45123D01*
G01X65943Y45420D01*
G01X65834Y45420D01*
G01X65758Y45455D01*
G01X65722Y45493D01*
G01X65684Y45605D01*
G01X65684Y45679D01*
G01X65722Y45788D01*
G01X65796Y45862D01*
G01X65907Y45900D01*
G01X66017Y45900D01*
G01X66128Y45862D01*
G01X66164Y45826D01*
G01X66202Y45753D01*
G01X65440Y45123D02*
G01X65145Y45900D01*
G01X64851Y45123D02*
G01X65145Y45900D01*
G01X64533Y45123D02*
G01X64127Y45123D01*
G01X64348Y45420D01*
G01X64236Y45420D01*
G01X64162Y45455D01*
G01X64127Y45493D01*
G01X64089Y45605D01*
G01X64089Y45679D01*
G01X64127Y45788D01*
G01X64201Y45862D01*
G01X64310Y45900D01*
G01X64422Y45900D01*
G01X64533Y45862D01*
G01X64569Y45826D01*
G01X64607Y45753D01*
G01X65648Y42768D02*
G01X65684Y42694D01*
G01X65758Y42621D01*
G01X65834Y42583D01*
G01X65981Y42583D01*
G01X66055Y42621D01*
G01X66128Y42694D01*
G01X66164Y42768D01*
G01X66202Y42880D01*
G01X66202Y43065D01*
G01X66164Y43174D01*
G01X66128Y43248D01*
G01X66055Y43322D01*
G01X65981Y43360D01*
G01X65834Y43360D01*
G01X65758Y43322D01*
G01X65684Y43248D01*
G01X65648Y43174D01*
G01X65648Y43065D01*
G01X65834Y43065D02*
G01X65648Y43065D01*
G01X65405Y42583D02*
G01X65405Y43360D01*
G01X65405Y42583D02*
G01X64886Y43360D01*
G01X64886Y42583D02*
G01X64886Y43360D01*
G01X64643Y42583D02*
G01X64643Y43360D01*
G01X64643Y42583D02*
G01X64383Y42583D01*
G01X64274Y42621D01*
G01X64201Y42694D01*
G01X64162Y42768D01*
G01X64127Y42880D01*
G01X64127Y43065D01*
G01X64162Y43174D01*
G01X64201Y43248D01*
G01X64274Y43322D01*
G01X64383Y43360D01*
G01X64643Y43360D01*
G01X66034Y40195D02*
G01X66034Y40972D01*
G01X66294Y40195D02*
G01X65775Y40195D01*
G01X65532Y40195D02*
G01X65016Y40972D01*
G01X65016Y40195D02*
G01X65532Y40972D01*
G01X66294Y37655D02*
G01X66294Y38432D01*
G01X66294Y37655D02*
G01X65961Y37655D01*
G01X65849Y37693D01*
G01X65813Y37731D01*
G01X65775Y37805D01*
G01X65775Y37879D01*
G01X65813Y37952D01*
G01X65849Y37988D01*
G01X65961Y38026D01*
G01X66294Y38026D01*
G01X66034Y38026D02*
G01X65775Y38432D01*
G01X65532Y37655D02*
G01X65016Y38432D01*
G01X65016Y37655D02*
G01X65532Y38432D01*
G01X66202Y34963D02*
G01X66202Y35740D01*
G01X66202Y34963D02*
G01X65943Y34963D01*
G01X65834Y35001D01*
G01X65758Y35074D01*
G01X65722Y35148D01*
G01X65684Y35260D01*
G01X65684Y35445D01*
G01X65722Y35554D01*
G01X65758Y35628D01*
G01X65834Y35702D01*
G01X65943Y35740D01*
G01X66202Y35740D01*
G01X65257Y34963D02*
G01X65366Y35001D01*
G01X65405Y35074D01*
G01X65405Y35148D01*
G01X65366Y35222D01*
G01X65293Y35260D01*
G01X65145Y35295D01*
G01X65034Y35333D01*
G01X64960Y35407D01*
G01X64924Y35481D01*
G01X64924Y35593D01*
G01X64960Y35666D01*
G01X64998Y35702D01*
G01X65107Y35740D01*
G01X65257Y35740D01*
G01X65366Y35702D01*
G01X65405Y35666D01*
G01X65440Y35593D01*
G01X65440Y35481D01*
G01X65405Y35407D01*
G01X65331Y35333D01*
G01X65219Y35295D01*
G01X65072Y35260D01*
G01X64998Y35222D01*
G01X64960Y35148D01*
G01X64960Y35074D01*
G01X64998Y35001D01*
G01X65107Y34963D01*
G01X65257Y34963D01*
G01X66202Y32423D02*
G01X66202Y33200D01*
G01X66202Y32423D02*
G01X65943Y32423D01*
G01X65834Y32461D01*
G01X65758Y32534D01*
G01X65722Y32608D01*
G01X65684Y32720D01*
G01X65684Y32905D01*
G01X65722Y33014D01*
G01X65758Y33088D01*
G01X65834Y33162D01*
G01X65943Y33200D01*
G01X66202Y33200D01*
G01X64924Y32423D02*
G01X65293Y33200D01*
G01X65440Y32423D02*
G01X64924Y32423D01*
G01X66202Y29883D02*
G01X66202Y30660D01*
G01X66202Y29883D02*
G01X65943Y29883D01*
G01X65834Y29921D01*
G01X65758Y29994D01*
G01X65722Y30068D01*
G01X65684Y30180D01*
G01X65684Y30365D01*
G01X65722Y30474D01*
G01X65758Y30548D01*
G01X65834Y30622D01*
G01X65943Y30660D01*
G01X66202Y30660D01*
G01X64998Y29994D02*
G01X65034Y29921D01*
G01X65145Y29883D01*
G01X65219Y29883D01*
G01X65331Y29921D01*
G01X65405Y30032D01*
G01X65440Y30215D01*
G01X65440Y30401D01*
G01X65405Y30548D01*
G01X65331Y30622D01*
G01X65219Y30660D01*
G01X65184Y30660D01*
G01X65072Y30622D01*
G01X64998Y30548D01*
G01X64960Y30439D01*
G01X64960Y30401D01*
G01X64998Y30289D01*
G01X65072Y30215D01*
G01X65184Y30180D01*
G01X65219Y30180D01*
G01X65331Y30215D01*
G01X65405Y30289D01*
G01X65440Y30401D01*
G01X66202Y27343D02*
G01X66202Y28120D01*
G01X66202Y27343D02*
G01X65943Y27343D01*
G01X65834Y27381D01*
G01X65758Y27454D01*
G01X65722Y27528D01*
G01X65684Y27640D01*
G01X65684Y27825D01*
G01X65722Y27934D01*
G01X65758Y28008D01*
G01X65834Y28082D01*
G01X65943Y28120D01*
G01X66202Y28120D01*
G01X64998Y27343D02*
G01X65366Y27343D01*
G01X65405Y27675D01*
G01X65366Y27640D01*
G01X65257Y27602D01*
G01X65145Y27602D01*
G01X65034Y27640D01*
G01X64960Y27713D01*
G01X64924Y27825D01*
G01X64924Y27899D01*
G01X64960Y28008D01*
G01X65034Y28082D01*
G01X65145Y28120D01*
G01X65257Y28120D01*
G01X65366Y28082D01*
G01X65405Y28046D01*
G01X65440Y27973D01*
G01X65648Y24988D02*
G01X65684Y24914D01*
G01X65758Y24841D01*
G01X65834Y24803D01*
G01X65981Y24803D01*
G01X66055Y24841D01*
G01X66128Y24914D01*
G01X66164Y24988D01*
G01X66202Y25100D01*
G01X66202Y25285D01*
G01X66164Y25394D01*
G01X66128Y25468D01*
G01X66055Y25542D01*
G01X65981Y25580D01*
G01X65834Y25580D01*
G01X65758Y25542D01*
G01X65684Y25468D01*
G01X65648Y25394D01*
G01X65648Y25285D01*
G01X65834Y25285D02*
G01X65648Y25285D01*
G01X65405Y24803D02*
G01X65405Y25580D01*
G01X65405Y24803D02*
G01X64886Y25580D01*
G01X64886Y24803D02*
G01X64886Y25580D01*
G01X64643Y24803D02*
G01X64643Y25580D01*
G01X64643Y24803D02*
G01X64383Y24803D01*
G01X64274Y24841D01*
G01X64201Y24914D01*
G01X64162Y24988D01*
G01X64127Y25100D01*
G01X64127Y25285D01*
G01X64162Y25394D01*
G01X64201Y25468D01*
G01X64274Y25542D01*
G01X64383Y25580D01*
G01X64643Y25580D01*
G01X66128Y22263D02*
G01X65722Y22263D01*
G01X65943Y22560D01*
G01X65834Y22560D01*
G01X65758Y22595D01*
G01X65722Y22633D01*
G01X65684Y22745D01*
G01X65684Y22819D01*
G01X65722Y22928D01*
G01X65796Y23002D01*
G01X65907Y23040D01*
G01X66017Y23040D01*
G01X66128Y23002D01*
G01X66164Y22966D01*
G01X66202Y22893D01*
G01X65440Y22263D02*
G01X65145Y23040D01*
G01X64851Y22263D02*
G01X65145Y23040D01*
G01X64533Y22263D02*
G01X64127Y22263D01*
G01X64348Y22560D01*
G01X64236Y22560D01*
G01X64162Y22595D01*
G01X64127Y22633D01*
G01X64089Y22745D01*
G01X64089Y22819D01*
G01X64127Y22928D01*
G01X64201Y23002D01*
G01X64310Y23040D01*
G01X64422Y23040D01*
G01X64533Y23002D01*
G01X64569Y22966D01*
G01X64607Y22893D01*
G01X66202Y19723D02*
G01X66202Y20500D01*
G01X66202Y19723D02*
G01X65943Y19723D01*
G01X65834Y19761D01*
G01X65758Y19834D01*
G01X65722Y19908D01*
G01X65684Y20020D01*
G01X65684Y20205D01*
G01X65722Y20314D01*
G01X65758Y20388D01*
G01X65834Y20462D01*
G01X65943Y20500D01*
G01X66202Y20500D01*
G01X65072Y19723D02*
G01X65440Y20241D01*
G01X64886Y20241D01*
G01X65072Y19723D02*
G01X65072Y20500D01*
G01X66202Y17183D02*
G01X66202Y17960D01*
G01X66202Y17183D02*
G01X65943Y17183D01*
G01X65834Y17221D01*
G01X65758Y17294D01*
G01X65722Y17368D01*
G01X65684Y17480D01*
G01X65684Y17665D01*
G01X65722Y17774D01*
G01X65758Y17848D01*
G01X65834Y17922D01*
G01X65943Y17960D01*
G01X66202Y17960D01*
G01X65366Y17183D02*
G01X64960Y17183D01*
G01X65184Y17480D01*
G01X65072Y17480D01*
G01X64998Y17515D01*
G01X64960Y17553D01*
G01X64924Y17665D01*
G01X64924Y17739D01*
G01X64960Y17848D01*
G01X65034Y17922D01*
G01X65145Y17960D01*
G01X65257Y17960D01*
G01X65366Y17922D01*
G01X65405Y17886D01*
G01X65440Y17813D01*
G01X66202Y14643D02*
G01X66202Y15420D01*
G01X66202Y14643D02*
G01X65943Y14643D01*
G01X65834Y14681D01*
G01X65758Y14754D01*
G01X65722Y14828D01*
G01X65684Y14940D01*
G01X65684Y15125D01*
G01X65722Y15234D01*
G01X65758Y15308D01*
G01X65834Y15382D01*
G01X65943Y15420D01*
G01X66202Y15420D01*
G01X65405Y14828D02*
G01X65405Y14792D01*
G01X65366Y14719D01*
G01X65331Y14681D01*
G01X65257Y14643D01*
G01X65107Y14643D01*
G01X65034Y14681D01*
G01X64998Y14719D01*
G01X64960Y14792D01*
G01X64960Y14866D01*
G01X64998Y14940D01*
G01X65072Y15049D01*
G01X65440Y15420D01*
G01X64924Y15420D01*
G01X66202Y12103D02*
G01X66202Y12880D01*
G01X66202Y12103D02*
G01X65943Y12103D01*
G01X65834Y12141D01*
G01X65758Y12214D01*
G01X65722Y12288D01*
G01X65684Y12400D01*
G01X65684Y12585D01*
G01X65722Y12694D01*
G01X65758Y12768D01*
G01X65834Y12842D01*
G01X65943Y12880D01*
G01X66202Y12880D01*
G01X65440Y12252D02*
G01X65366Y12214D01*
G01X65257Y12103D01*
G01X65257Y12880D01*
G01X66040Y9906D02*
G01X66040Y10683D01*
G01X66040Y9906D02*
G01X65780Y9906D01*
G01X65671Y9944D01*
G01X65595Y10017D01*
G01X65559Y10091D01*
G01X65521Y10203D01*
G01X65521Y10388D01*
G01X65559Y10497D01*
G01X65595Y10571D01*
G01X65671Y10645D01*
G01X65780Y10683D01*
G01X66040Y10683D01*
G01X65057Y9906D02*
G01X65168Y9944D01*
G01X65242Y10055D01*
G01X65278Y10238D01*
G01X65278Y10350D01*
G01X65242Y10535D01*
G01X65168Y10645D01*
G01X65057Y10683D01*
G01X64983Y10683D01*
G01X64871Y10645D01*
G01X64797Y10535D01*
G01X64762Y10350D01*
G01X64762Y10238D01*
G01X64797Y10055D01*
G01X64871Y9944D01*
G01X64983Y9906D01*
G01X65057Y9906D01*
G54D16*
G01X57122Y28829D02*
G01X57899Y28829D01*
G01X58056Y28879D01*
G01X58160Y28983D01*
G01X58211Y29141D01*
G01X58211Y29245D01*
G01X58160Y29400D01*
G01X58056Y29504D01*
G01X57899Y29555D01*
G01X57122Y29555D01*
G01X57381Y29951D02*
G01X57327Y29951D01*
G01X57223Y30002D01*
G01X57172Y30055D01*
G01X57122Y30159D01*
G01X57122Y30365D01*
G01X57172Y30469D01*
G01X57223Y30523D01*
G01X57327Y30573D01*
G01X57431Y30573D01*
G01X57536Y30523D01*
G01X57693Y30419D01*
G01X58211Y29898D01*
G01X58211Y30627D01*
G01X86972Y44589D02*
G01X87802Y44589D01*
G01X87957Y44536D01*
G01X88011Y44485D01*
G01X88061Y44381D01*
G01X88061Y44277D01*
G01X88011Y44173D01*
G01X87957Y44119D01*
G01X87802Y44069D01*
G01X87698Y44069D01*
G01X86972Y44932D02*
G01X88061Y44932D01*
G01X86972Y44932D02*
G01X86972Y45399D01*
G01X87022Y45554D01*
G01X87073Y45605D01*
G01X87177Y45659D01*
G01X87335Y45659D01*
G01X87439Y45605D01*
G01X87490Y45554D01*
G01X87543Y45399D01*
G01X87543Y44932D01*
G01X87177Y46001D02*
G01X87127Y46106D01*
G01X86972Y46261D01*
G01X88061Y46261D01*
M00*
M02*
