G04 Layer: BottomSolderMaskLayer*
G04 EasyEDA v6.1.52, Thu, 01 Aug 2019 03:37:45 GMT*
G04 db437ead1b4e433ca09bb31b05fed2d0,8891319bfb9c4d3ab71b0b9d4a5ec0bf,10*
G04 Gerber Generator version 0.2*
G04 Scale: 100 percent, Rotated: No, Reflected: No *
G04 Dimensions in millimeters *
G04 leading zeros omitted , absolute positions ,3 integer and 3 decimal *
%FSLAX33Y33*%
%MOMM*%
G90*
G71D02*

%ADD18C,2.133600*%
%ADD19C,1.727200*%

%LPD*%
G54D18*
G01X85598Y10414D03*
G01X85598Y12954D03*
G01X85598Y15494D03*
G01X85598Y18034D03*
G01X85598Y20574D03*
G01X85598Y23114D03*
G01X85598Y25654D03*
G01X85598Y28194D03*
G01X85598Y30734D03*
G01X85598Y33274D03*
G01X85598Y35814D03*
G01X85598Y38354D03*
G01X85598Y40894D03*
G01X85598Y43434D03*
G01X85598Y45974D03*
G01X62738Y10414D03*
G01X62738Y12954D03*
G01X62738Y15494D03*
G01X62738Y18034D03*
G01X62738Y20574D03*
G01X62738Y23114D03*
G01X62738Y25654D03*
G01X62738Y28194D03*
G01X62738Y30734D03*
G01X62738Y33274D03*
G01X62738Y35814D03*
G01X62738Y38354D03*
G01X62738Y40894D03*
G01X62738Y43434D03*
G01X62738Y45974D03*
G54D19*
G01X55499Y37719D03*
G01X55499Y35179D03*
G01X55499Y32639D03*
G01X55499Y30099D03*
G01X55499Y27559D03*
G01X55499Y25019D03*
G01X55499Y22479D03*
G01X55499Y19939D03*
G36*
G01X90759Y42242D02*
G01X90759Y43860D01*
G01X92377Y43860D01*
G01X92377Y42242D01*
G01X90759Y42242D01*
G37*
G36*
G01X90759Y44782D02*
G01X90759Y46400D01*
G01X92377Y46400D01*
G01X92377Y44782D01*
G01X90759Y44782D01*
G37*
M00*
M02*
